<?xml version="1.0" standalone="no"?>
<!DOCTYPE svg PUBLIC "-//W3C//DTD SVG 20010904//EN"
 "http://www.w3.org/TR/2001/REC-SVG-20010904/DTD/svg10.dtd">
<svg version="1.0" xmlns="http://www.w3.org/2000/svg"
 width="551.000000pt" height="562.000000pt" viewBox="0 0 551.000000 562.000000"
 preserveAspectRatio="xMidYMid meet">

<g transform="translate(0.000000,562.000000) scale(0.100000,-0.100000)"
fill="#000000" stroke="none">
<path d="M2656 5091 c-5 -8 4 -56 50 -261 8 -36 17 -78 21 -95 7 -38 87 -172
165 -277 l60 -81 -37 -126 c-21 -69 -42 -143 -49 -163 -6 -21 -14 -38 -18 -38
-8 0 -154 168 -264 306 -68 84 -75 98 -98 185 -25 94 -50 212 -82 389 -9 52
-20 98 -23 102 -4 4 -17 5 -30 1 -22 -6 -23 -8 -16 -72 16 -149 65 -452 84
-518 5 -18 24 -54 42 -80 45 -65 203 -277 251 -335 31 -38 40 -57 42 -93 2
-33 10 -53 28 -73 24 -25 26 -31 18 -82 -4 -30 -14 -107 -20 -170 -16 -148
-15 -147 -42 -124 -30 27 -246 279 -295 344 -48 64 -119 240 -222 548 -69 209
-81 244 -121 384 l-23 77 32 36 c35 40 38 62 16 106 -27 50 -93 64 -138 29
-47 -37 -45 -111 5 -150 13 -11 32 -64 59 -170 77 -295 223 -761 266 -845 24
-45 166 -231 307 -400 128 -154 137 -170 120 -232 -5 -19 -8 -18 -42 20 -75
87 -211 222 -317 315 -60 53 -112 99 -115 102 -3 3 -31 27 -62 53 -32 27 -58
54 -58 61 0 17 -39 52 -67 60 -29 9 -110 100 -182 206 -115 167 -256 506 -252
604 1 23 2 56 3 74 2 46 -39 86 -88 86 -45 0 -94 -48 -94 -93 0 -38 34 -79 73
-89 30 -8 33 -12 57 -108 15 -54 41 -139 59 -189 47 -129 46 -121 19 -128 -13
-4 -79 -7 -148 -7 -135 0 -129 -2 -392 94 -93 33 -98 34 -108 16 -20 -38 -37
-27 200 -132 144 -64 161 -69 260 -78 58 -5 144 -10 192 -10 l88 0 20 -41 c23
-44 110 -170 143 -206 11 -13 18 -25 15 -28 -6 -6 -191 -21 -373 -30 l-130 -7
-110 47 c-60 25 -184 82 -274 127 -166 81 -181 84 -181 38 1 -20 134 -98 360
-209 l185 -91 285 0 c235 -1 288 -3 304 -15 11 -8 38 -15 60 -15 45 0 83 -28
239 -176 75 -72 90 -94 65 -94 -7 0 -96 -7 -198 -15 -265 -21 -328 -19 -445
11 -295 75 -884 276 -894 305 -11 33 -51 59 -90 59 -32 0 -44 -6 -65 -31 -33
-39 -33 -79 0 -118 21 -25 33 -31 67 -31 27 0 48 7 63 21 l22 21 113 -45 c311
-123 322 -127 544 -202 292 -98 325 -105 487 -104 79 0 229 6 333 13 l190 13
34 -31 c18 -17 69 -75 113 -130 l79 -98 -3 -57 -3 -56 -90 3 c-266 8 -857 62
-894 82 -11 5 -31 10 -44 10 -13 0 -96 18 -183 41 -375 95 -512 160 -707 332
-54 48 -67 65 -67 89 0 42 -48 88 -92 88 -63 0 -108 -66 -84 -123 20 -48 42
-62 101 -62 50 0 54 -2 116 -62 94 -91 167 -144 261 -193 46 -24 85 -44 87
-46 8 -7 -36 -48 -124 -114 -70 -52 -107 -72 -165 -89 -41 -13 -86 -26 -100
-31 -14 -5 -59 -18 -100 -30 -41 -12 -81 -23 -87 -25 -7 -3 -13 -16 -13 -30 0
-22 4 -25 33 -25 18 0 57 6 87 14 30 8 102 24 160 36 58 12 120 29 139 37 32
14 202 126 277 181 l31 23 139 -41 c160 -48 184 -57 183 -67 0 -8 -266 -232
-353 -299 -59 -45 -229 -88 -563 -144 -74 -12 -87 -23 -65 -58 10 -14 162 1
387 38 240 40 245 43 544 274 107 82 130 96 163 96 27 0 46 8 71 30 19 16 36
28 38 26 3 -3 336 -45 366 -46 9 -1 -39 -44 -197 -178 -177 -150 -205 -170
-257 -193 -155 -67 -530 -196 -786 -270 l-138 -40 -35 30 c-46 41 -86 41 -125
2 -56 -56 -27 -145 52 -157 32 -5 42 -2 75 28 22 20 50 37 64 40 168 34 640
174 875 260 129 48 206 101 521 364 l118 98 66 -3 c36 -1 82 -6 103 -9 l38 -7
-92 -75 c-107 -88 -275 -259 -412 -420 -53 -63 -116 -129 -140 -146 -23 -17
-50 -46 -59 -66 -54 -112 -387 -316 -657 -403 -121 -38 -141 -41 -208 -30 -38
7 -45 5 -73 -23 -41 -42 -42 -92 -1 -133 37 -37 79 -38 119 -4 16 13 32 37 35
53 5 26 12 30 112 55 59 15 151 44 206 66 54 21 101 36 103 32 3 -4 8 -65 11
-136 l7 -130 -41 -120 c-101 -291 -96 -275 -81 -286 8 -5 22 -8 30 -6 8 1 48
78 93 181 74 167 80 185 88 275 4 53 8 139 9 192 l0 96 64 38 c35 20 97 62
137 92 39 30 75 51 80 46 4 -4 13 -119 19 -254 l12 -245 -60 -142 c-34 -78
-90 -199 -126 -269 -59 -116 -64 -129 -49 -141 9 -6 22 -12 28 -12 15 0 122
188 218 380 l72 145 3 294 c2 238 6 298 17 315 8 11 15 39 15 62 0 39 7 49
107 160 111 122 154 166 159 161 8 -8 34 -360 34 -461 0 -104 -4 -130 -39
-259 -89 -319 -260 -816 -287 -832 -69 -40 -84 -106 -35 -156 85 -85 210 38
129 127 -19 21 -19 22 27 135 26 63 62 157 81 209 19 52 40 106 46 120 19 46
130 384 154 470 28 100 30 209 13 550 l-11 215 68 63 c75 69 194 162 208 162
4 0 6 -10 2 -22 -3 -13 -16 -77 -28 -143 -19 -105 -22 -166 -26 -495 -5 -477
-5 -459 3 -497 18 -83 -60 -390 -146 -572 -64 -136 -150 -281 -166 -281 -7 0
-27 -13 -45 -29 -45 -40 -45 -92 0 -132 43 -39 84 -38 123 0 33 33 39 82 15
117 -14 19 -12 26 21 74 52 77 130 214 154 271 12 27 27 49 33 49 6 0 54 -44
107 -98 l95 -99 77 -179 c62 -146 80 -180 98 -182 12 -2 25 0 30 5 8 8 -74
270 -117 372 -17 40 -103 150 -187 238 -66 70 -65 59 -27 196 11 44 24 104 28
135 4 30 12 57 18 59 6 2 92 -76 191 -174 l181 -178 38 -110 c21 -60 62 -186
90 -279 28 -94 55 -171 60 -173 5 -2 18 3 28 10 18 13 18 20 -21 178 -46 184
-92 345 -117 403 -18 42 -33 61 -253 293 -111 117 -143 157 -143 178 0 17 -11
37 -30 55 l-30 28 0 191 c0 113 4 191 9 191 13 0 103 -82 272 -248 l137 -134
116 -231 c63 -128 161 -338 216 -467 92 -215 100 -238 92 -271 -11 -43 6 -92
37 -108 11 -6 38 -11 60 -11 56 0 85 37 78 99 -6 51 -35 80 -80 81 -19 0 -30
7 -37 23 -5 12 -50 126 -100 252 -100 252 -184 443 -266 607 -53 106 -53 106
-290 342 l-236 236 11 111 c12 115 44 290 61 335 7 17 15 24 28 20 9 -3 36
-10 58 -15 36 -10 70 -41 256 -239 326 -344 367 -393 512 -610 232 -346 301
-501 326 -739 11 -108 11 -114 -9 -142 -30 -42 -27 -86 8 -122 34 -33 82 -39
118 -14 24 17 45 77 36 103 -9 24 -44 62 -59 62 -8 0 -15 24 -19 68 -16 180
-30 254 -61 347 -19 55 -36 105 -37 110 -2 12 152 8 234 -6 31 -5 104 -33 165
-63 243 -119 237 -117 253 -87 13 24 5 32 -144 116 -66 38 -132 77 -147 87
-38 26 -115 45 -265 64 -70 9 -137 18 -148 20 -12 2 -34 29 -58 71 -21 37 -43
77 -50 87 -56 90 -77 127 -77 137 0 12 155 8 409 -12 116 -8 129 -11 190 -46
106 -59 260 -152 347 -210 44 -29 86 -53 92 -53 6 0 16 8 21 19 8 14 5 23 -17
43 -41 37 -124 96 -267 190 -210 137 -204 134 -350 152 -128 16 -340 36 -381
36 -12 0 -39 14 -60 31 -30 24 -46 30 -72 27 -30 -4 -38 1 -80 51 -26 31 -79
93 -119 137 -40 45 -73 87 -73 93 0 14 133 14 345 1 182 -12 198 -16 352 -76
214 -85 272 -110 572 -255 166 -81 202 -102 197 -115 -19 -49 38 -114 99 -114
60 0 104 85 74 142 -14 26 -73 50 -104 42 -14 -3 -31 -2 -38 3 -36 29 -499
263 -672 340 -220 98 -264 112 -401 127 -71 8 -223 20 -339 26 l-210 11 -50
49 c-27 27 -47 52 -44 54 3 3 61 1 130 -5 70 -7 239 -9 392 -7 147 3 270 1
273 -4 7 -12 62 -10 100 4 64 23 314 -30 503 -107 200 -81 351 -170 379 -223
26 -51 60 -69 108 -57 55 14 81 61 65 116 -8 26 -21 44 -41 54 -36 19 -54 19
-90 0 -28 -15 -31 -14 -112 39 -46 29 -129 77 -185 106 -57 29 -103 57 -103
62 0 11 147 158 191 189 19 14 109 57 201 95 159 65 167 70 168 97 0 18 -5 27
-16 27 -9 0 -98 -27 -198 -61 -198 -66 -238 -90 -396 -236 -79 -73 -65 -71
-210 -33 -47 12 -107 25 -135 29 -27 3 -50 11 -50 17 0 17 304 333 346 359 33
21 309 114 492 166 70 20 77 24 71 43 -3 12 -9 24 -13 28 -7 9 -343 -73 -496
-120 -113 -35 -115 -37 -379 -286 -109 -103 -146 -132 -174 -137 -22 -4 -43
-16 -55 -33 l-19 -26 -194 0 c-115 0 -194 4 -194 9 0 14 191 220 301 326 91
87 101 93 299 192 113 56 232 113 265 126 33 14 89 39 125 55 36 16 126 55
200 86 123 51 138 55 167 44 40 -15 88 4 108 43 20 37 19 58 -5 96 -22 36 -69
51 -112 34 -28 -11 -58 -56 -58 -89 0 -15 -15 -25 -62 -42 -230 -83 -556 -220
-773 -325 l-151 -73 -237 -236 -237 -236 -99 10 c-178 19 -239 34 -277 71 -19
18 -34 38 -34 44 0 23 640 618 680 633 8 3 26 15 40 27 42 39 339 226 445 280
160 83 273 116 452 131 74 6 84 4 109 -15 38 -30 79 -27 115 8 60 61 23 156
-61 156 -36 0 -47 -6 -74 -36 l-31 -35 -150 -16 c-112 -13 -173 -25 -240 -48
-148 -52 -137 -53 -130 21 21 217 21 218 107 395 62 128 79 171 71 183 -6 9
-16 16 -24 16 -14 0 -52 -52 -85 -114 -10 -20 -44 -79 -74 -131 -61 -104 -81
-174 -100 -355 -6 -55 -17 -108 -23 -117 -16 -24 -280 -179 -289 -170 -7 7 6
367 17 472 6 61 59 162 199 383 44 70 88 139 96 152 12 19 12 26 1 39 -7 9
-19 16 -25 16 -7 0 -39 -37 -72 -82 -69 -98 -204 -297 -204 -303 0 -2 -13 -24
-30 -48 -16 -24 -34 -57 -41 -73 -12 -31 -31 -190 -50 -414 -11 -126 -14 -137
-40 -168 -21 -24 -29 -43 -29 -71 0 -37 -5 -43 -107 -129 -60 -49 -119 -101
-132 -116 -26 -28 -51 -34 -51 -13 0 6 5 124 10 260 10 245 11 249 44 340 54
147 180 435 286 655 l99 202 41 0 c54 0 90 36 90 90 0 54 -36 90 -90 90 -65 0
-97 -40 -91 -116 1 -12 -20 -62 -47 -111 -86 -154 -255 -501 -335 -685 l-76
-177 -16 -158 c-8 -87 -19 -240 -24 -341 -10 -210 5 -178 -144 -315 -50 -46
-92 -76 -96 -71 -20 21 47 834 70 859 5 5 9 23 9 40 0 42 72 323 121 467 63
190 108 269 233 415 57 66 77 82 99 83 42 0 67 17 83 57 20 46 5 92 -37 117
-69 41 -146 -15 -134 -97 5 -36 2 -42 -84 -137 -87 -97 -159 -202 -197 -287
-11 -23 -22 -43 -25 -43 -8 0 -83 89 -136 161 -29 40 -50 85 -72 160 -18 57
-38 122 -46 144 -7 22 -19 59 -25 83 -9 35 -15 42 -35 42 -13 0 -26 -4 -29 -9z"/>
</g>
</svg>
